<svg xmlns="http://www.w3.org/2000/svg" viewBox="0 0 551 564" width="551" height="564" role="img" aria-label="tarun0648 · language mix" font-family="ui-sans-serif,-apple-system,Segoe UI,Helvetica,Arial,sans-serif"><text x="275.5" y="25" text-anchor="middle" font-size="15" font-weight="700" fill="#e6edf3">tarun0648 · language mix</text><g transform="translate(259.3,289.0)"><polygon points="0.0,-212.0 183.6,-106.0 183.6,106.0 0.0,212.0 -183.6,106.0 -183.6,-106.0" fill="none" stroke="#30363d" stroke-width="1" opacity="0.85"/><polygon points="0.0,-159.0 137.7,-79.5 137.7,79.5 0.0,159.0 -137.7,79.5 -137.7,-79.5" fill="none" stroke="#30363d" stroke-width="1" opacity="0.72"/><polygon points="0.0,-106.0 91.8,-53.0 91.8,53.0 0.0,106.0 -91.8,53.0 -91.8,-53.0" fill="none" stroke="#30363d" stroke-width="1" opacity="0.60"/><polygon points="0.0,-53.0 45.9,-26.5 45.9,26.5 0.0,53.0 -45.9,26.5 -45.9,-26.5" fill="none" stroke="#30363d" stroke-width="1" opacity="0.47"/><line x1="0" y1="0" x2="0.0" y2="-212.0" stroke="#21262d" stroke-width="1"/><line x1="0" y1="0" x2="183.6" y2="-106.0" stroke="#21262d" stroke-width="1"/><line x1="0" y1="0" x2="183.6" y2="106.0" stroke="#21262d" stroke-width="1"/><line x1="0" y1="0" x2="0.0" y2="212.0" stroke="#21262d" stroke-width="1"/><line x1="0" y1="0" x2="-183.6" y2="106.0" stroke="#21262d" stroke-width="1"/><line x1="0" y1="0" x2="-183.6" y2="-106.0" stroke="#21262d" stroke-width="1"/><g><animateTransform attributeName="transform" type="scale" values="0.04;1" dur="1.1s" calcMode="spline" keyTimes="0;1" keySplines="0.22 1 0.36 1" fill="freeze"/><polygon points="0.0,-212.0 154.8,-89.4 33.6,19.4 0.0,36.7 -20.0,11.6 -10.3,-5.9" fill="#39d353" fill-opacity="0.22" stroke="#3fb950" stroke-width="2.5" stroke-linejoin="round"/><circle cx="0.0" cy="-212.0" r="3.6" fill="#7ee787" stroke="#3fb950" stroke-width="1.2"/><circle cx="154.8" cy="-89.4" r="3.6" fill="#7ee787" stroke="#3fb950" stroke-width="1.2"/><circle cx="33.6" cy="19.4" r="3.6" fill="#7ee787" stroke="#3fb950" stroke-width="1.2"/><circle cx="0.0" cy="36.7" r="3.6" fill="#7ee787" stroke="#3fb950" stroke-width="1.2"/><circle cx="-20.0" cy="11.6" r="3.6" fill="#7ee787" stroke="#3fb950" stroke-width="1.2"/><circle cx="-10.3" cy="-5.9" r="3.6" fill="#7ee787" stroke="#3fb950" stroke-width="1.2"/></g><text x="0.0" y="-237.0" text-anchor="middle" font-size="13" font-weight="600" fill="#c9d1d9">Python</text><text x="0.0" y="-222.0" text-anchor="middle" font-size="11" fill="#8b949e">100</text><text x="200.9" y="-121.0" text-anchor="start" font-size="13" font-weight="600" fill="#c9d1d9">Java</text><text x="200.9" y="-106.0" text-anchor="start" font-size="11" fill="#8b949e">84.3</text><text x="200.9" y="130.0" text-anchor="start" font-size="13" font-weight="600" fill="#c9d1d9">JavaScript</text><text x="200.9" y="145.0" text-anchor="start" font-size="11" fill="#8b949e">18.3</text><text x="0.0" y="246.0" text-anchor="middle" font-size="13" font-weight="600" fill="#c9d1d9">Jupyter Notebook</text><text x="0.0" y="261.0" text-anchor="middle" font-size="11" fill="#8b949e">17.3</text><text x="-200.9" y="130.0" text-anchor="end" font-size="13" font-weight="600" fill="#c9d1d9">MATLAB</text><text x="-200.9" y="145.0" text-anchor="end" font-size="11" fill="#8b949e">10.9</text><text x="-200.9" y="-121.0" text-anchor="end" font-size="13" font-weight="600" fill="#c9d1d9">Mako</text><text x="-200.9" y="-106.0" text-anchor="end" font-size="11" fill="#8b949e">5.6</text></g></svg>